{
	"asset":{
		"generator":"Created using the official Cinema 4D glTF Exporter 1.000x290161",
		"version":"2.0"
	},
	"scenes":[{
		"nodes":[0,
		1,
		2,
		3,
		4,
		5,
		12,
		13]
	}],
	"nodes":[{
		"name":"Pyramid",
		"translation":[0.0,
		43398.2421875,
		168434.734375],
		"rotation":[0.0,
		0.0,
		0.0,
		-1.0],
		"scale":[1.0,
		1.0,
		1.0],
		"mesh":0
	},
	{
		"name":"Cube.1",
		"translation":[0.0,
		39818.734375,
		-69854.96875],
		"rotation":[0.0,
		0.0,
		0.0,
		-1.0],
		"scale":[1.0,
		1.0,
		1.0],
		"mesh":1
	},
	{
		"name":"Cube",
		"mesh":2
	},
	{
		"name":"Sphere.1",
		"mesh":3
	},
	{
		"name":"Plane",
		"translation":[-864.6721801757813,
		13656.634765625,
		0.0],
		"rotation":[0.0,
		0.0,
		0.0,
		-1.0],
		"scale":[1.0,
		1.0,
		1.0],
		"mesh":4
	},
	{
		"name":"Null",
		"translation":[13547.9228515625,
		10395.10546875,
		17926.79296875],
		"rotation":[0.0,
		0.0,
		0.0,
		-1.0],
		"scale":[1.0,
		1.0,
		1.0],
		"children":[6]
	},
	{
		"name":"Extrude",
		"translation":[-13547.9228515625,
		4326.28662109375,
		-17926.79296875],
		"rotation":[0.0,
		0.0,
		0.0,
		-1.0],
		"scale":[1.0,
		1.0,
		1.0],
		"mesh":5,
		"children":[7,
		9,
		11]
	},
	{
		"name":"Rounding 1",
		"mesh":6,
		"children":[8]
	},
	{
		"name":"Cap 1",
		"mesh":7
	},
	{
		"name":"Rounding 2",
		"mesh":8,
		"children":[10]
	},
	{
		"name":"Cap 2",
		"mesh":9
	},
	{
		"name":"Cube.1",
		"translation":[-2337.899658203125,
		-661.8358154296875,
		0.0],
		"rotation":[0.0,
		0.0,
		0.11320321261882782,
		0.9935718774795532],
		"scale":[1.0,
		1.0,
		1.0],
		"mesh":10
	},
	{
		"name":"Sphere",
		"translation":[2510.1123046875,
		13572.0283203125,
		0.0],
		"rotation":[0.0,
		0.0,
		0.0,
		-1.0],
		"scale":[1.0,
		1.0,
		1.0],
		"mesh":11
	},
	{
		"name":"Boole",
		"children":[14,
		15]
	},
	{
		"name":"Cube",
		"translation":[0.0,
		3705.395263671875,
		0.0],
		"rotation":[0.0,
		0.0,
		0.0,
		-1.0],
		"scale":[1.0,
		1.0,
		1.0],
		"mesh":12
	},
	{
		"name":"Extrude.1",
		"translation":[-4276.107421875,
		14292.419921875,
		-4257.20556640625],
		"rotation":[0.0,
		0.0,
		0.0,
		-1.0],
		"scale":[1.0,
		1.0,
		1.0],
		"mesh":13,
		"children":[16]
	},
	{
		"name":"Cap 2",
		"mesh":14
	}],
	"meshes":[{
		"primitives":[{
			"attributes":{
				"POSITION":1,
				"NORMAL":2,
				"TEXCOORD_0":3
			},
			"indices":0,
			"material":0
		}]
	},
	{
		"primitives":[{
			"attributes":{
				"POSITION":5,
				"NORMAL":6,
				"TEXCOORD_0":7
			},
			"indices":4,
			"material":1
		}]
	},
	{
		"primitives":[{
			"attributes":{
				"POSITION":9,
				"NORMAL":10,
				"TEXCOORD_0":11
			},
			"indices":8,
			"material":2
		}]
	},
	{
		"primitives":[{
			"attributes":{
				"POSITION":13,
				"NORMAL":14,
				"TEXCOORD_0":15
			},
			"indices":12,
			"material":3
		}]
	},
	{
		"primitives":[{
			"attributes":{
				"POSITION":17,
				"NORMAL":18,
				"TEXCOORD_0":19
			},
			"indices":16,
			"material":4
		}]
	},
	{
		"primitives":[{
			"attributes":{
				"POSITION":21,
				"NORMAL":22,
				"TEXCOORD_0":23
			},
			"indices":20,
			"material":2
		}]
	},
	{
		"primitives":[{
			"attributes":{
				"POSITION":25,
				"NORMAL":26,
				"TEXCOORD_0":27
			},
			"indices":24,
			"material":2
		}]
	},
	{
		"primitives":[{
			"attributes":{
				"POSITION":29,
				"NORMAL":30,
				"TEXCOORD_0":31
			},
			"indices":28,
			"material":2
		}]
	},
	{
		"primitives":[{
			"attributes":{
				"POSITION":33,
				"NORMAL":34,
				"TEXCOORD_0":35
			},
			"indices":32,
			"material":2
		}]
	},
	{
		"primitives":[{
			"attributes":{
				"POSITION":37,
				"NORMAL":38,
				"TEXCOORD_0":39
			},
			"indices":36,
			"material":2
		}]
	},
	{
		"primitives":[{
			"attributes":{
				"POSITION":41,
				"NORMAL":42,
				"TEXCOORD_0":43
			},
			"indices":40,
			"material":2
		}]
	},
	{
		"primitives":[{
			"attributes":{
				"POSITION":45,
				"NORMAL":46,
				"TEXCOORD_0":47
			},
			"indices":44,
			"material":2
		}]
	},
	{
		"primitives":[{
			"attributes":{
				"POSITION":49,
				"NORMAL":50,
				"TEXCOORD_0":51
			},
			"indices":48,
			"material":5
		}]
	},
	{
		"primitives":[{
			"attributes":{
				"POSITION":53,
				"NORMAL":54,
				"TEXCOORD_0":55
			},
			"indices":52,
			"material":6
		}]
	},
	{
		"primitives":[{
			"attributes":{
				"POSITION":57,
				"NORMAL":58,
				"TEXCOORD_0":59
			},
			"indices":56,
			"material":7
		}]
	}],
	"accessors":[{
		"max":[15],
		"bufferView":0,
		"type":"SCALAR",
		"componentType":5123,
		"count":18,
		"byteOffset":0,
		"min":[0]
	},
	{
		"max":[10000.0,
		10000.0,
		10000.0],
		"bufferView":1,
		"type":"VEC3",
		"componentType":5126,
		"count":16,
		"byteOffset":0,
		"min":[-10000.0,
		-10000.0,
		-10000.0]
	},
	{
		"max":[0.8944271802902222,
		0.4472135901451111,
		0.8944271802902222],
		"bufferView":1,
		"type":"VEC3",
		"componentType":5126,
		"count":16,
		"byteOffset":12,
		"min":[-0.8944271802902222,
		-1.0,
		-0.8944271802902222]
	},
	{
		"max":[1.0,
		1.0],
		"bufferView":1,
		"type":"VEC2",
		"componentType":5126,
		"count":16,
		"byteOffset":24,
		"min":[0.0,
		0.0]
	},
	{
		"max":[23],
		"bufferView":2,
		"type":"SCALAR",
		"componentType":5123,
		"count":36,
		"byteOffset":0,
		"min":[0]
	},
	{
		"max":[23495.65234375,
		15901.4736328125,
		551.4530029296875],
		"bufferView":3,
		"type":"VEC3",
		"componentType":5126,
		"count":24,
		"byteOffset":0,
		"min":[-23495.65234375,
		-15901.4736328125,
		-551.4530029296875]
	},
	{
		"max":[1.0,
		1.0,
		1.0],
		"bufferView":3,
		"type":"VEC3",
		"componentType":5126,
		"count":24,
		"byteOffset":12,
		"min":[-1.0,
		-1.0,
		-1.0]
	},
	{
		"max":[1.0,
		1.0],
		"bufferView":3,
		"type":"VEC2",
		"componentType":5126,
		"count":24,
		"byteOffset":24,
		"min":[0.0,
		0.0]
	},
	{
		"max":[23],
		"bufferView":4,
		"type":"SCALAR",
		"componentType":5123,
		"count":36,
		"byteOffset":0,
		"min":[0]
	},
	{
		"max":[570394.125,
		1321.3543701171876,
		560685.8125],
		"bufferView":5,
		"type":"VEC3",
		"componentType":5126,
		"count":24,
		"byteOffset":0,
		"min":[-570394.125,
		-1321.3543701171876,
		-560685.8125]
	},
	{
		"max":[1.0,
		1.0,
		1.0],
		"bufferView":5,
		"type":"VEC3",
		"componentType":5126,
		"count":24,
		"byteOffset":12,
		"min":[-1.0,
		-1.0,
		-1.0]
	},
	{
		"max":[1.0,
		1.0],
		"bufferView":5,
		"type":"VEC2",
		"componentType":5126,
		"count":24,
		"byteOffset":24,
		"min":[0.0,
		0.0]
	},
	{
		"max":[7741],
		"bufferView":6,
		"type":"SCALAR",
		"componentType":5123,
		"count":43200,
		"byteOffset":0,
		"min":[0]
	},
	{
		"max":[544099.5,
		544105.4375,
		544099.5],
		"bufferView":7,
		"type":"VEC3",
		"componentType":5126,
		"count":7742,
		"byteOffset":0,
		"min":[-544099.5,
		0.0,
		-544099.5]
	},
	{
		"max":[0.9996193051338196,
		1.0,
		0.9996193051338196],
		"bufferView":7,
		"type":"VEC3",
		"componentType":5126,
		"count":7742,
		"byteOffset":12,
		"min":[-0.9996193051338196,
		-1.0,
		-0.9996193051338196]
	},
	{
		"max":[1.0,
		0.5],
		"bufferView":7,
		"type":"VEC2",
		"componentType":5126,
		"count":7742,
		"byteOffset":24,
		"min":[0.0,
		0.0]
	},
	{
		"max":[440],
		"bufferView":8,
		"type":"SCALAR",
		"componentType":5123,
		"count":2400,
		"byteOffset":0,
		"min":[0]
	},
	{
		"max":[5137.99462890625,
		0.0,
		6323.068359375],
		"bufferView":9,
		"type":"VEC3",
		"componentType":5126,
		"count":441,
		"byteOffset":0,
		"min":[-5137.994140625,
		0.0,
		-6323.068359375]
	},
	{
		"max":[0.0,
		1.0,
		0.0],
		"bufferView":9,
		"type":"VEC3",
		"componentType":5126,
		"count":441,
		"byteOffset":12,
		"min":[0.0,
		1.0,
		0.0]
	},
	{
		"max":[1.0,
		1.0],
		"bufferView":9,
		"type":"VEC2",
		"componentType":5126,
		"count":441,
		"byteOffset":24,
		"min":[0.0,
		0.0]
	},
	{
		"max":[1235],
		"bufferView":10,
		"type":"SCALAR",
		"componentType":5123,
		"count":6060,
		"byteOffset":0,
		"min":[0]
	},
	{
		"max":[4844.3125,
		217.94869995117188,
		-1676.7998046875],
		"bufferView":11,
		"type":"VEC3",
		"componentType":5126,
		"count":1236,
		"byteOffset":0,
		"min":[653.7172241210938,
		-548.6744384765625,
		-5180.9423828125]
	},
	{
		"max":[0.9844295978546143,
		0.0,
		0.9999999403953552],
		"bufferView":11,
		"type":"VEC3",
		"componentType":5126,
		"count":1236,
		"byteOffset":12,
		"min":[-0.9938987493515015,
		0.0,
		-0.9999694228172302]
	},
	{
		"max":[1.0,
		1.0],
		"bufferView":11,
		"type":"VEC2",
		"componentType":5126,
		"count":1236,
		"byteOffset":24,
		"min":[0.0,
		0.0]
	},
	{
		"max":[411],
		"bufferView":12,
		"type":"SCALAR",
		"componentType":5123,
		"count":1212,
		"byteOffset":0,
		"min":[0]
	},
	{
		"max":[4844.3125,
		307.00054931640627,
		-1676.7998046875],
		"bufferView":13,
		"type":"VEC3",
		"componentType":5126,
		"count":412,
		"byteOffset":0,
		"min":[653.7172241210938,
		-348.6744689941406,
		-5180.9423828125]
	},
	{
		"max":[0.6181843876838684,
		0.7775060534477234,
		0.7395628690719605],
		"bufferView":13,
		"type":"VEC3",
		"componentType":5126,
		"count":412,
		"byteOffset":12,
		"min":[-0.7724614143371582,
		0.6295388340950012,
		-0.6978645920753479]
	},
	{
		"max":[1.0,
		1.0],
		"bufferView":13,
		"type":"VEC2",
		"componentType":5126,
		"count":412,
		"byteOffset":24,
		"min":[0.0,
		0.0]
	},
	{
		"max":[201],
		"bufferView":14,
		"type":"SCALAR",
		"componentType":5123,
		"count":600,
		"byteOffset":0,
		"min":[0]
	},
	{
		"max":[4712.5224609375,
		307.00054931640627,
		-1775.6092529296876],
		"bufferView":15,
		"type":"VEC3",
		"componentType":5126,
		"count":202,
		"byteOffset":0,
		"min":[754.474853515625,
		-236.22909545898438,
		-5079.52587890625]
	},
	{
		"max":[0.0,
		0.9999895691871643,
		0.058928314596414569],
		"bufferView":15,
		"type":"VEC3",
		"componentType":5126,
		"count":202,
		"byteOffset":12,
		"min":[-0.17331522703170777,
		0.9848213195800781,
		-0.01174999587237835]
	},
	{
		"max":[1.0,
		0.8834207057952881],
		"bufferView":15,
		"type":"VEC2",
		"componentType":5126,
		"count":202,
		"byteOffset":24,
		"min":[0.0,
		0.0]
	},
	{
		"max":[411],
		"bufferView":16,
		"type":"SCALAR",
		"componentType":5123,
		"count":1212,
		"byteOffset":0,
		"min":[0]
	},
	{
		"max":[4844.3125,
		17.948699951171876,
		-1676.7998046875],
		"bufferView":17,
		"type":"VEC3",
		"componentType":5126,
		"count":412,
		"byteOffset":0,
		"min":[653.7172241210938,
		-635.1237182617188,
		-5180.9423828125]
	},
	{
		"max":[0.7687000036239624,
		-0.6288412809371948,
		0.7372869253158569],
		"bufferView":17,
		"type":"VEC3",
		"componentType":5126,
		"count":412,
		"byteOffset":12,
		"min":[-0.626127302646637,
		-0.7768782377243042,
		-0.7170842885971069]
	},
	{
		"max":[1.0,
		1.0],
		"bufferView":17,
		"type":"VEC2",
		"componentType":5126,
		"count":412,
		"byteOffset":24,
		"min":[0.0,
		0.0]
	},
	{
		"max":[201],
		"bufferView":18,
		"type":"SCALAR",
		"componentType":5123,
		"count":600,
		"byteOffset":0,
		"min":[0]
	},
	{
		"max":[4733.34521484375,
		-91.89408111572266,
		-1778.31787109375],
		"bufferView":19,
		"type":"VEC3",
		"componentType":5126,
		"count":202,
		"byteOffset":0,
		"min":[775.2975463867188,
		-635.1237182617188,
		-5082.234375]
	},
	{
		"max":[0.173315167427063,
		-0.9848213195800781,
		0.01174997165799141],
		"bufferView":19,
		"type":"VEC3",
		"componentType":5126,
		"count":202,
		"byteOffset":12,
		"min":[0.0,
		-0.9999896287918091,
		-0.05892763286828995]
	},
	{
		"max":[1.0,
		0.8834207057952881],
		"bufferView":19,
		"type":"VEC2",
		"componentType":5126,
		"count":202,
		"byteOffset":24,
		"min":[0.0,
		0.0]
	},
	{
		"max":[23],
		"bufferView":20,
		"type":"SCALAR",
		"componentType":5123,
		"count":36,
		"byteOffset":0,
		"min":[0]
	},
	{
		"max":[3297.645263671875,
		57.66256332397461,
		402.095458984375],
		"bufferView":21,
		"type":"VEC3",
		"componentType":5126,
		"count":24,
		"byteOffset":0,
		"min":[-3297.645263671875,
		-57.66256332397461,
		-402.095458984375]
	},
	{
		"max":[1.0,
		1.0,
		1.0],
		"bufferView":21,
		"type":"VEC3",
		"componentType":5126,
		"count":24,
		"byteOffset":12,
		"min":[-1.0,
		-1.0,
		-1.0]
	},
	{
		"max":[1.0,
		1.0],
		"bufferView":21,
		"type":"VEC2",
		"componentType":5126,
		"count":24,
		"byteOffset":24,
		"min":[0.0,
		0.0]
	},
	{
		"max":[3749],
		"bufferView":22,
		"type":"SCALAR",
		"componentType":5123,
		"count":21240,
		"byteOffset":0,
		"min":[0]
	},
	{
		"max":[3367.274658203125,
		3367.274658203125,
		3367.274658203125],
		"bufferView":23,
		"type":"VEC3",
		"componentType":5126,
		"count":3750,
		"byteOffset":0,
		"min":[-3367.274658203125,
		0.0,
		-3367.274658203125]
	},
	{
		"max":[0.9996193051338196,
		1.0,
		0.9996193051338196],
		"bufferView":23,
		"type":"VEC3",
		"componentType":5126,
		"count":3750,
		"byteOffset":12,
		"min":[-0.9996193051338196,
		0.026175545528531076,
		-0.9996193051338196]
	},
	{
		"max":[1.0,
		0.5],
		"bufferView":23,
		"type":"VEC2",
		"componentType":5126,
		"count":3750,
		"byteOffset":24,
		"min":[0.0,
		0.0]
	},
	{
		"max":[91],
		"bufferView":24,
		"type":"SCALAR",
		"componentType":5123,
		"count":246,
		"byteOffset":0,
		"min":[0]
	},
	{
		"max":[6319.43603515625,
		10000.0,
		6616.65283203125],
		"bufferView":25,
		"type":"VEC3",
		"componentType":5126,
		"count":92,
		"byteOffset":0,
		"min":[-6319.43603515625,
		-10000.0,
		-6616.65283203125]
	},
	{
		"max":[1.0,
		1.0,
		1.0],
		"bufferView":25,
		"type":"VEC3",
		"componentType":5126,
		"count":92,
		"byteOffset":12,
		"min":[-1.0,
		-1.0,
		-1.0]
	},
	{
		"max":[1.0,
		1.0],
		"bufferView":25,
		"type":"VEC2",
		"componentType":5126,
		"count":92,
		"byteOffset":24,
		"min":[0.0,
		0.0]
	},
	{
		"max":[137],
		"bufferView":26,
		"type":"SCALAR",
		"componentType":5123,
		"count":408,
		"byteOffset":0,
		"min":[0]
	},
	{
		"max":[1500.0,
		-587.0250244140625,
		1500.0],
		"bufferView":27,
		"type":"VEC3",
		"componentType":5126,
		"count":138,
		"byteOffset":0,
		"min":[-1500.0,
		-700.0,
		-1500.0]
	},
	{
		"max":[0.9998703598976135,
		0.0,
		0.9998703598976135],
		"bufferView":27,
		"type":"VEC3",
		"componentType":5126,
		"count":138,
		"byteOffset":12,
		"min":[-0.9998703598976135,
		-3.925511990067991e-17,
		-0.9998703598976135]
	},
	{
		"max":[1.0,
		1.0],
		"bufferView":27,
		"type":"VEC2",
		"componentType":5126,
		"count":138,
		"byteOffset":24,
		"min":[0.0,
		0.8386070728302002]
	},
	{
		"max":[67],
		"bufferView":28,
		"type":"SCALAR",
		"componentType":5123,
		"count":198,
		"byteOffset":0,
		"min":[0]
	},
	{
		"max":[1500.0,
		-700.0,
		1500.0],
		"bufferView":29,
		"type":"VEC3",
		"componentType":5126,
		"count":68,
		"byteOffset":0,
		"min":[-1500.0,
		-700.0,
		-1500.0]
	},
	{
		"max":[0.0,
		-1.0,
		0.0],
		"bufferView":29,
		"type":"VEC3",
		"componentType":5126,
		"count":68,
		"byteOffset":12,
		"min":[0.0,
		-1.0,
		0.0]
	},
	{
		"max":[1.0,
		1.0],
		"bufferView":29,
		"type":"VEC2",
		"componentType":5126,
		"count":68,
		"byteOffset":24,
		"min":[0.0,
		0.0]
	}],
	"bufferViews":[{
		"buffer":0,
		"byteOffset":0,
		"byteLength":36,
		"target":34963
	},
	{
		"buffer":0,
		"byteOffset":36,
		"byteLength":512,
		"target":34962,
		"byteStride":32
	},
	{
		"buffer":1,
		"byteOffset":0,
		"byteLength":72,
		"target":34963
	},
	{
		"buffer":1,
		"byteOffset":72,
		"byteLength":768,
		"target":34962,
		"byteStride":32
	},
	{
		"buffer":2,
		"byteOffset":0,
		"byteLength":72,
		"target":34963
	},
	{
		"buffer":2,
		"byteOffset":72,
		"byteLength":768,
		"target":34962,
		"byteStride":32
	},
	{
		"buffer":3,
		"byteOffset":0,
		"byteLength":86400,
		"target":34963
	},
	{
		"buffer":3,
		"byteOffset":86400,
		"byteLength":247744,
		"target":34962,
		"byteStride":32
	},
	{
		"buffer":4,
		"byteOffset":0,
		"byteLength":4800,
		"target":34963
	},
	{
		"buffer":4,
		"byteOffset":4800,
		"byteLength":14112,
		"target":34962,
		"byteStride":32
	},
	{
		"buffer":5,
		"byteOffset":0,
		"byteLength":12120,
		"target":34963
	},
	{
		"buffer":5,
		"byteOffset":12120,
		"byteLength":39552,
		"target":34962,
		"byteStride":32
	},
	{
		"buffer":6,
		"byteOffset":0,
		"byteLength":2424,
		"target":34963
	},
	{
		"buffer":6,
		"byteOffset":2424,
		"byteLength":13184,
		"target":34962,
		"byteStride":32
	},
	{
		"buffer":7,
		"byteOffset":0,
		"byteLength":1200,
		"target":34963
	},
	{
		"buffer":7,
		"byteOffset":1200,
		"byteLength":6464,
		"target":34962,
		"byteStride":32
	},
	{
		"buffer":8,
		"byteOffset":0,
		"byteLength":2424,
		"target":34963
	},
	{
		"buffer":8,
		"byteOffset":2424,
		"byteLength":13184,
		"target":34962,
		"byteStride":32
	},
	{
		"buffer":9,
		"byteOffset":0,
		"byteLength":1200,
		"target":34963
	},
	{
		"buffer":9,
		"byteOffset":1200,
		"byteLength":6464,
		"target":34962,
		"byteStride":32
	},
	{
		"buffer":10,
		"byteOffset":0,
		"byteLength":72,
		"target":34963
	},
	{
		"buffer":10,
		"byteOffset":72,
		"byteLength":768,
		"target":34962,
		"byteStride":32
	},
	{
		"buffer":11,
		"byteOffset":0,
		"byteLength":42480,
		"target":34963
	},
	{
		"buffer":11,
		"byteOffset":42480,
		"byteLength":120000,
		"target":34962,
		"byteStride":32
	},
	{
		"buffer":12,
		"byteOffset":0,
		"byteLength":492,
		"target":34963
	},
	{
		"buffer":12,
		"byteOffset":492,
		"byteLength":2944,
		"target":34962,
		"byteStride":32
	},
	{
		"buffer":13,
		"byteOffset":0,
		"byteLength":816,
		"target":34963
	},
	{
		"buffer":13,
		"byteOffset":816,
		"byteLength":4416,
		"target":34962,
		"byteStride":32
	},
	{
		"buffer":14,
		"byteOffset":0,
		"byteLength":396,
		"target":34963
	},
	{
		"buffer":14,
		"byteOffset":396,
		"byteLength":2176,
		"target":34962,
		"byteStride":32
	}],
	"buffers":[{
		"uri":"data:application/octet-stream;base64,",
		"byteLength":548
	},
	{
		"uri":"data:application/octet-stream;base64,",
		"byteLength":840
	},
	{
		"uri":"data:application/octet-stream;base64,",
		"byteLength":840
	},
	{
		"uri":"data:application/octet-stream;base64,",
		"byteLength":334144
	},
	{
		"uri":"data:application/octet-stream;base64,",
		"byteLength":18912
	},
	{
		"uri":"data:application/octet-stream;base64,",
		"byteLength":51672
	},
	{
		"uri":"data:application/octet-stream;base64,",
		"byteLength":15608
	},
	{
		"uri":"data:application/octet-stream;base64,",
		"byteLength":7664
	},
	{
		"uri":"data:application/octet-stream;base64,",
		"byteLength":15608
	},
	{
		"uri":"data:application/octet-stream;base64,",
		"byteLength":7664
	},
	{
		"uri":"data:application/octet-stream;base64,",
		"byteLength":840
	},
	{
		"uri":"data:application/octet-stream;base64,",
		"byteLength":162480
	},
	{
		"uri":"data:application/octet-stream;base64,",
		"byteLength":3436
	},
	{
		"uri":"data:application/octet-stream;base64,",
		"byteLength":5232
	},
	{
		"uri":"data:application/octet-stream;base64,",
		"byteLength":2572
	}],
	"images":[{
		"uri":"data:image/jpeg;base64,"
	}],
	"samplers":[{
		"magFilter":9729,
		"minFilter":9729,
		"wrapS":10497,
		"wrapT":10497
	}],
	"textures":[{
		"sampler":0,
		"source":0
	}],
	"materials":[{
		"pbrMetallicRoughness":{
			"baseColorFactor":[0.08812388878868309,
			0.08866500038650833,
			0.09137055837563457,
			1.0],
			"metallicFactor":1.0,
			"roughnessFactor":1.0
		},
		"emissiveFactor":[0.0556571929191683,
		0.05705892962972511,
		0.06091370558375642],
		"alphaMode":"OPAQUE",
		"doubleSided":false,
		"name":"Preto.1"
	},
	{
		"pbrMetallicRoughness":{
			"baseColorTexture":{
				"index":0
			},
			"baseColorFactor":[1.0,
			1.0,
			1.0,
			1.0],
			"metallicFactor":1.0,
			"roughnessFactor":1.0
		},
		"emissiveFactor":[0.0,
		0.0,
		0.0],
		"alphaMode":"OPAQUE",
		"doubleSided":false,
		"name":"Mat"
	},
	{
		"pbrMetallicRoughness":{
			"baseColorFactor":[0.7497539230590843,
			0.7564362218385771,
			0.7898477157360407,
			1.0],
			"metallicFactor":1.0,
			"roughnessFactor":1.0
		},
		"emissiveFactor":[0.73,
		0.73,
		0.73],
		"alphaMode":"OPAQUE",
		"doubleSided":false,
		"name":"Branco"
	},
	{
		"pbrMetallicRoughness":{
			"baseColorFactor":[0.4923857868020305,
			0.4923857868020305,
			0.4923857868020305,
			1.0],
			"metallicFactor":1.0,
			"roughnessFactor":1.0
		},
		"emissiveFactor":[0.47978561673838546,
		0.48043838628496829,
		0.48223350253807109],
		"alphaMode":"OPAQUE",
		"doubleSided":false,
		"name":"Cinza"
	},
	{
		"pbrMetallicRoughness":{
			"baseColorFactor":[0.08812388878868309,
			0.08866500038650833,
			0.09137055837563457,
			1.0],
			"metallicFactor":0.36,
			"roughnessFactor":0.64
		},
		"emissiveFactor":[0.0556571929191683,
		0.05705892962972511,
		0.06091370558375642],
		"alphaMode":"OPAQUE",
		"doubleSided":false,
		"name":"Lago"
	},
	{
		"pbrMetallicRoughness":{
			"baseColorFactor":[0.08812388878868309,
			0.08866500038650833,
			0.09137055837563457,
			1.0],
			"metallicFactor":1.0,
			"roughnessFactor":1.0
		},
		"emissiveFactor":[0.0556571929191683,
		0.05705892962972511,
		0.06091370558375642],
		"alphaMode":"OPAQUE",
		"doubleSided":false,
		"name":"Preto"
	},
	{
		"pbrMetallicRoughness":{
			"baseColorFactor":[1.0,
			1.0,
			1.0,
			1.0],
			"metallicFactor":1.0,
			"roughnessFactor":1.0
		},
		"emissiveFactor":[0.0,
		0.0,
		0.0],
		"alphaMode":"OPAQUE",
		"doubleSided":false,
		"name":""
	},
	{
		"pbrMetallicRoughness":{
			"baseColorFactor":[1.0,
			1.0,
			1.0,
			1.0],
			"metallicFactor":1.0,
			"roughnessFactor":1.0
		},
		"emissiveFactor":[0.0,
		0.0,
		0.0],
		"alphaMode":"OPAQUE",
		"doubleSided":false,
		"name":""
	}]
}